<mxfile host="app.diagrams.net" agent="Mozilla/5.0 (Windows NT 10.0; Win64; x64) AppleWebKit/537.36 (KHTML, like Gecko) Chrome/130.0.0.0 Whale/4.29.282.15 Safari/537.36" version="26.0.5">
  <diagram name="페이지-1" id="VXEAoYOjQRf6rh3x1svb">
    <mxGraphModel dx="2255" dy="2669" grid="1" gridSize="10" guides="1" tooltips="1" connect="1" arrows="1" fold="1" page="1" pageScale="1" pageWidth="827" pageHeight="1169" math="0" shadow="0">
      <root>
        <mxCell id="0" />
        <mxCell id="1" parent="0" />
        <mxCell id="3XsBuUyz1fBq4fFgZFKG-260" value="" style="ellipse;whiteSpace=wrap;html=1;strokeColor=none;" parent="1" vertex="1">
          <mxGeometry x="-363" y="420" width="5" height="5" as="geometry" />
        </mxCell>
        <mxCell id="3XsBuUyz1fBq4fFgZFKG-258" value="" style="ellipse;whiteSpace=wrap;html=1;strokeColor=none;" parent="1" vertex="1">
          <mxGeometry x="-5" y="826" width="5" height="5" as="geometry" />
        </mxCell>
        <mxCell id="3XsBuUyz1fBq4fFgZFKG-248" value="" style="ellipse;whiteSpace=wrap;html=1;strokeColor=none;" parent="1" vertex="1">
          <mxGeometry x="355" y="654" width="5" height="5" as="geometry" />
        </mxCell>
        <mxCell id="3XsBuUyz1fBq4fFgZFKG-245" value="" style="ellipse;whiteSpace=wrap;html=1;strokeColor=none;" parent="1" vertex="1">
          <mxGeometry x="355" y="486" width="5" height="5" as="geometry" />
        </mxCell>
        <UserObject label="" id="3XsBuUyz1fBq4fFgZFKG-102">
          <mxCell style="html=1;overflow=block;blockSpacing=1;whiteSpace=wrap;fontSize=13;spacing=9;strokeColor=light-dark(#f5ff66, #b1b7be);strokeOpacity=100;fillOpacity=100;rounded=1;absoluteArcSize=1;arcSize=9;fillColor=#f7f4e4;strokeWidth=1.5;lucidId=9~3GJv8OuRuf;" parent="1" vertex="1">
            <mxGeometry x="-820" y="-670" width="1970" height="1690" as="geometry" />
          </mxCell>
        </UserObject>
        <mxCell id="3XsBuUyz1fBq4fFgZFKG-239" value="" style="rounded=0;whiteSpace=wrap;html=1;strokeColor=none;" parent="1" vertex="1">
          <mxGeometry x="-300" y="720" width="600" height="140" as="geometry" />
        </mxCell>
        <mxCell id="3XsBuUyz1fBq4fFgZFKG-235" value="" style="rounded=0;whiteSpace=wrap;html=1;strokeColor=none;" parent="1" vertex="1">
          <mxGeometry x="-473" y="100" width="220" height="280" as="geometry" />
        </mxCell>
        <mxCell id="gbrn2lNVtv7BBhAPLF4O-77" value="" style="rounded=0;whiteSpace=wrap;html=1;strokeColor=none;" parent="1" vertex="1">
          <mxGeometry x="40" width="640" height="650" as="geometry" />
        </mxCell>
        <mxCell id="gbrn2lNVtv7BBhAPLF4O-4" style="edgeStyle=orthogonalEdgeStyle;rounded=0;orthogonalLoop=1;jettySize=auto;html=1;exitX=0;exitY=1;exitDx=0;exitDy=0;entryX=0.5;entryY=0;entryDx=0;entryDy=0;" parent="1" source="gbrn2lNVtv7BBhAPLF4O-1" target="gbrn2lNVtv7BBhAPLF4O-2" edge="1">
          <mxGeometry relative="1" as="geometry" />
        </mxCell>
        <mxCell id="gbrn2lNVtv7BBhAPLF4O-5" style="edgeStyle=orthogonalEdgeStyle;rounded=0;orthogonalLoop=1;jettySize=auto;html=1;exitX=1;exitY=1;exitDx=0;exitDy=0;entryX=0.5;entryY=0;entryDx=0;entryDy=0;" parent="1" source="gbrn2lNVtv7BBhAPLF4O-1" target="gbrn2lNVtv7BBhAPLF4O-3" edge="1">
          <mxGeometry relative="1" as="geometry" />
        </mxCell>
        <mxCell id="gbrn2lNVtv7BBhAPLF4O-18" style="edgeStyle=orthogonalEdgeStyle;rounded=0;orthogonalLoop=1;jettySize=auto;html=1;exitX=0;exitY=1;exitDx=0;exitDy=0;entryX=0.5;entryY=0;entryDx=0;entryDy=0;fillColor=#66B2FF;" parent="1" source="gbrn2lNVtv7BBhAPLF4O-1" target="gbrn2lNVtv7BBhAPLF4O-16" edge="1">
          <mxGeometry relative="1" as="geometry">
            <Array as="points">
              <mxPoint x="290" y="205" />
              <mxPoint x="290" y="340" />
              <mxPoint x="360" y="340" />
            </Array>
          </mxGeometry>
        </mxCell>
        <mxCell id="gbrn2lNVtv7BBhAPLF4O-1" value="Unfair Identification AI" style="ellipse;whiteSpace=wrap;html=1;aspect=fixed;fillColor=#dae8fc;strokeColor=#6c8ebf;" parent="1" vertex="1">
          <mxGeometry x="310" y="120" width="100" height="100" as="geometry" />
        </mxCell>
        <mxCell id="gbrn2lNVtv7BBhAPLF4O-15" style="edgeStyle=orthogonalEdgeStyle;rounded=0;orthogonalLoop=1;jettySize=auto;html=1;" parent="1" source="gbrn2lNVtv7BBhAPLF4O-2" target="gbrn2lNVtv7BBhAPLF4O-14" edge="1">
          <mxGeometry relative="1" as="geometry" />
        </mxCell>
        <mxCell id="gbrn2lNVtv7BBhAPLF4O-2" value="&lt;span style=&quot;background-color: transparent; color: light-dark(rgb(0, 0, 0), rgb(255, 255, 255));&quot;&gt;Unfair Legal Prediction AI&lt;/span&gt;" style="ellipse;whiteSpace=wrap;html=1;aspect=fixed;fillColor=#dae8fc;strokeColor=#6c8ebf;" parent="1" vertex="1">
          <mxGeometry x="110" y="230" width="100" height="100" as="geometry" />
        </mxCell>
        <mxCell id="gbrn2lNVtv7BBhAPLF4O-23" style="edgeStyle=orthogonalEdgeStyle;rounded=0;orthogonalLoop=1;jettySize=auto;html=1;exitX=0;exitY=1;exitDx=0;exitDy=0;entryX=0.5;entryY=0;entryDx=0;entryDy=0;" parent="1" source="gbrn2lNVtv7BBhAPLF4O-3" target="gbrn2lNVtv7BBhAPLF4O-22" edge="1">
          <mxGeometry relative="1" as="geometry">
            <Array as="points">
              <mxPoint x="525" y="340" />
              <mxPoint x="560" y="340" />
            </Array>
          </mxGeometry>
        </mxCell>
        <mxCell id="gbrn2lNVtv7BBhAPLF4O-24" style="edgeStyle=orthogonalEdgeStyle;rounded=0;orthogonalLoop=1;jettySize=auto;html=1;exitX=1;exitY=1;exitDx=0;exitDy=0;entryX=0.5;entryY=0;entryDx=0;entryDy=0;" parent="1" source="gbrn2lNVtv7BBhAPLF4O-3" target="gbrn2lNVtv7BBhAPLF4O-22" edge="1">
          <mxGeometry relative="1" as="geometry">
            <Array as="points">
              <mxPoint x="595" y="340" />
              <mxPoint x="560" y="340" />
            </Array>
          </mxGeometry>
        </mxCell>
        <mxCell id="gbrn2lNVtv7BBhAPLF4O-3" value="Toxic Identification AI" style="ellipse;whiteSpace=wrap;html=1;aspect=fixed;fillColor=#dae8fc;strokeColor=#6c8ebf;" parent="1" vertex="1">
          <mxGeometry x="510" y="230" width="100" height="100" as="geometry" />
        </mxCell>
        <mxCell id="gbrn2lNVtv7BBhAPLF4O-6" value="Yes(1)" style="text;html=1;align=center;verticalAlign=middle;whiteSpace=wrap;rounded=0;" parent="1" vertex="1">
          <mxGeometry x="260" y="180" width="60" height="30" as="geometry" />
        </mxCell>
        <mxCell id="gbrn2lNVtv7BBhAPLF4O-8" value="No(0)" style="text;html=1;align=center;verticalAlign=middle;whiteSpace=wrap;rounded=0;" parent="1" vertex="1">
          <mxGeometry x="400" y="180" width="60" height="30" as="geometry" />
        </mxCell>
        <mxCell id="gbrn2lNVtv7BBhAPLF4O-10" style="edgeStyle=orthogonalEdgeStyle;rounded=0;orthogonalLoop=1;jettySize=auto;html=1;entryX=0.5;entryY=0;entryDx=0;entryDy=0;exitX=0.5;exitY=1;exitDx=0;exitDy=0;fillColor=#f8cecc;strokeColor=#000000;" parent="1" source="3XsBuUyz1fBq4fFgZFKG-170" target="gbrn2lNVtv7BBhAPLF4O-1" edge="1">
          <mxGeometry relative="1" as="geometry">
            <mxPoint x="360" y="90" as="sourcePoint" />
          </mxGeometry>
        </mxCell>
        <mxCell id="gbrn2lNVtv7BBhAPLF4O-11" style="edgeStyle=orthogonalEdgeStyle;rounded=0;orthogonalLoop=1;jettySize=auto;html=1;entryX=0.5;entryY=0;entryDx=0;entryDy=0;exitX=0.5;exitY=1;exitDx=0;exitDy=0;fillColor=#f8cecc;strokeColor=#000000;" parent="1" target="gbrn2lNVtv7BBhAPLF4O-2" edge="1">
          <mxGeometry relative="1" as="geometry">
            <mxPoint x="360" y="90" as="sourcePoint" />
            <Array as="points">
              <mxPoint x="360" y="100" />
              <mxPoint x="160" y="100" />
            </Array>
          </mxGeometry>
        </mxCell>
        <mxCell id="gbrn2lNVtv7BBhAPLF4O-12" style="edgeStyle=orthogonalEdgeStyle;rounded=0;orthogonalLoop=1;jettySize=auto;html=1;entryX=0.5;entryY=0;entryDx=0;entryDy=0;exitX=0.5;exitY=1;exitDx=0;exitDy=0;fillColor=#f8cecc;strokeColor=#000000;" parent="1" source="3XsBuUyz1fBq4fFgZFKG-170" target="gbrn2lNVtv7BBhAPLF4O-3" edge="1">
          <mxGeometry relative="1" as="geometry">
            <mxPoint x="360" y="90" as="sourcePoint" />
            <mxPoint x="630" y="340" as="targetPoint" />
            <Array as="points">
              <mxPoint x="360" y="100" />
              <mxPoint x="560" y="100" />
            </Array>
          </mxGeometry>
        </mxCell>
        <mxCell id="gbrn2lNVtv7BBhAPLF4O-54" style="edgeStyle=orthogonalEdgeStyle;rounded=0;orthogonalLoop=1;jettySize=auto;html=1;entryX=0.5;entryY=0;entryDx=0;entryDy=0;fillColor=#f8cecc;strokeColor=#000000;" parent="1" target="gbrn2lNVtv7BBhAPLF4O-57" edge="1">
          <mxGeometry relative="1" as="geometry">
            <Array as="points">
              <mxPoint x="360" y="100" />
              <mxPoint x="70" y="100" />
              <mxPoint x="70" y="430" />
              <mxPoint x="360" y="430" />
            </Array>
            <mxPoint x="360.03999999999905" y="90" as="sourcePoint" />
            <mxPoint x="360" y="660" as="targetPoint" />
          </mxGeometry>
        </mxCell>
        <mxCell id="gbrn2lNVtv7BBhAPLF4O-51" style="edgeStyle=orthogonalEdgeStyle;rounded=0;orthogonalLoop=1;jettySize=auto;html=1;entryX=0.5;entryY=0;entryDx=0;entryDy=0;" parent="1" source="gbrn2lNVtv7BBhAPLF4O-14" target="3XsBuUyz1fBq4fFgZFKG-171" edge="1">
          <mxGeometry relative="1" as="geometry">
            <Array as="points" />
            <mxPoint x="150" y="450" as="targetPoint" />
          </mxGeometry>
        </mxCell>
        <mxCell id="gbrn2lNVtv7BBhAPLF4O-14" value="Ouput: Article&lt;div&gt;Type: Int&lt;/div&gt;" style="rounded=0;whiteSpace=wrap;html=1;fillColor=#fff2cc;strokeColor=#d6b656;" parent="1" vertex="1">
          <mxGeometry x="100" y="360" width="120" height="60" as="geometry" />
        </mxCell>
        <mxCell id="gbrn2lNVtv7BBhAPLF4O-52" style="edgeStyle=orthogonalEdgeStyle;rounded=0;orthogonalLoop=1;jettySize=auto;html=1;entryX=0.5;entryY=0;entryDx=0;entryDy=0;" parent="1" source="gbrn2lNVtv7BBhAPLF4O-16" target="gbrn2lNVtv7BBhAPLF4O-57" edge="1">
          <mxGeometry relative="1" as="geometry">
            <mxPoint x="360" y="640" as="targetPoint" />
          </mxGeometry>
        </mxCell>
        <mxCell id="gbrn2lNVtv7BBhAPLF4O-16" value="Ouput: Unfair Label&lt;div&gt;Type: Int&lt;/div&gt;" style="rounded=0;whiteSpace=wrap;html=1;fillColor=#fff2cc;strokeColor=#d6b656;" parent="1" vertex="1">
          <mxGeometry x="300" y="360" width="120" height="60" as="geometry" />
        </mxCell>
        <mxCell id="gbrn2lNVtv7BBhAPLF4O-21" style="edgeStyle=orthogonalEdgeStyle;rounded=0;orthogonalLoop=1;jettySize=auto;html=1;exitX=1;exitY=1;exitDx=0;exitDy=0;entryX=0.5;entryY=0;entryDx=0;entryDy=0;" parent="1" source="gbrn2lNVtv7BBhAPLF4O-1" target="gbrn2lNVtv7BBhAPLF4O-16" edge="1">
          <mxGeometry relative="1" as="geometry">
            <mxPoint x="465" y="250" as="sourcePoint" />
            <mxPoint x="500" y="435" as="targetPoint" />
            <Array as="points">
              <mxPoint x="430" y="205" />
              <mxPoint x="430" y="340" />
              <mxPoint x="360" y="340" />
            </Array>
          </mxGeometry>
        </mxCell>
        <mxCell id="gbrn2lNVtv7BBhAPLF4O-53" style="edgeStyle=orthogonalEdgeStyle;rounded=0;orthogonalLoop=1;jettySize=auto;html=1;entryX=0.5;entryY=0;entryDx=0;entryDy=0;" parent="1" source="gbrn2lNVtv7BBhAPLF4O-22" target="gbrn2lNVtv7BBhAPLF4O-57" edge="1">
          <mxGeometry relative="1" as="geometry">
            <mxPoint x="360" y="640" as="targetPoint" />
            <Array as="points">
              <mxPoint x="560" y="470" />
              <mxPoint x="360" y="470" />
            </Array>
          </mxGeometry>
        </mxCell>
        <mxCell id="gbrn2lNVtv7BBhAPLF4O-22" value="Ouput: Toxic Label&lt;div&gt;Type: Int&lt;/div&gt;" style="rounded=0;whiteSpace=wrap;html=1;fillColor=#fff2cc;strokeColor=#d6b656;" parent="1" vertex="1">
          <mxGeometry x="500" y="360" width="120" height="60" as="geometry" />
        </mxCell>
        <mxCell id="3XsBuUyz1fBq4fFgZFKG-243" style="edgeStyle=orthogonalEdgeStyle;rounded=0;orthogonalLoop=1;jettySize=auto;html=1;entryX=0.5;entryY=0;entryDx=0;entryDy=0;" parent="1" source="gbrn2lNVtv7BBhAPLF4O-28" target="3XsBuUyz1fBq4fFgZFKG-241" edge="1">
          <mxGeometry relative="1" as="geometry">
            <Array as="points">
              <mxPoint x="560" y="630" />
              <mxPoint x="360" y="630" />
              <mxPoint x="360" y="700" />
              <mxPoint y="700" />
            </Array>
          </mxGeometry>
        </mxCell>
        <mxCell id="gbrn2lNVtv7BBhAPLF4O-28" value="Identification explain AI" style="ellipse;whiteSpace=wrap;html=1;aspect=fixed;fillColor=#dae8fc;strokeColor=#6c8ebf;" parent="1" vertex="1">
          <mxGeometry x="510" y="500" width="100" height="100" as="geometry" />
        </mxCell>
        <mxCell id="gbrn2lNVtv7BBhAPLF4O-55" value="Yes(1)" style="text;html=1;align=center;verticalAlign=middle;whiteSpace=wrap;rounded=0;" parent="1" vertex="1">
          <mxGeometry x="470" y="310" width="60" height="30" as="geometry" />
        </mxCell>
        <mxCell id="gbrn2lNVtv7BBhAPLF4O-56" value="No(0)" style="text;html=1;align=center;verticalAlign=middle;whiteSpace=wrap;rounded=0;" parent="1" vertex="1">
          <mxGeometry x="590" y="310" width="60" height="30" as="geometry" />
        </mxCell>
        <mxCell id="gbrn2lNVtv7BBhAPLF4O-65" style="edgeStyle=orthogonalEdgeStyle;rounded=0;orthogonalLoop=1;jettySize=auto;html=1;" parent="1" source="gbrn2lNVtv7BBhAPLF4O-57" target="gbrn2lNVtv7BBhAPLF4O-28" edge="1">
          <mxGeometry relative="1" as="geometry" />
        </mxCell>
        <mxCell id="3XsBuUyz1fBq4fFgZFKG-242" style="edgeStyle=orthogonalEdgeStyle;rounded=0;orthogonalLoop=1;jettySize=auto;html=1;exitX=0.5;exitY=1;exitDx=0;exitDy=0;entryX=0.5;entryY=0;entryDx=0;entryDy=0;" parent="1" source="gbrn2lNVtv7BBhAPLF4O-57" target="3XsBuUyz1fBq4fFgZFKG-241" edge="1">
          <mxGeometry relative="1" as="geometry">
            <Array as="points">
              <mxPoint x="360" y="700" />
              <mxPoint y="700" />
            </Array>
          </mxGeometry>
        </mxCell>
        <mxCell id="gbrn2lNVtv7BBhAPLF4O-57" value="&lt;span style=&quot;text-align: left;&quot;&gt;Unfair label == 1&amp;nbsp;&lt;/span&gt;&lt;div&gt;&lt;span style=&quot;text-align: left;&quot;&gt;or&amp;nbsp;&lt;/span&gt;&lt;div&gt;&lt;span style=&quot;text-align: left;&quot;&gt;Toxic label == 1&lt;/span&gt;&lt;/div&gt;&lt;/div&gt;" style="rhombus;whiteSpace=wrap;html=1;fillColor=#d5e8d4;strokeColor=#82b366;" parent="1" vertex="1">
          <mxGeometry x="240" y="510" width="240" height="80" as="geometry" />
        </mxCell>
        <mxCell id="gbrn2lNVtv7BBhAPLF4O-68" value="Yes" style="text;html=1;align=center;verticalAlign=middle;whiteSpace=wrap;rounded=0;" parent="1" vertex="1">
          <mxGeometry x="450" y="520" width="60" height="30" as="geometry" />
        </mxCell>
        <mxCell id="gbrn2lNVtv7BBhAPLF4O-69" value="No&lt;div&gt;&lt;span style=&quot;text-align: left;&quot;&gt;explanation = None&lt;/span&gt;&lt;/div&gt;" style="text;html=1;align=center;verticalAlign=middle;whiteSpace=wrap;rounded=0;" parent="1" vertex="1">
          <mxGeometry x="250" y="590" width="110" height="30" as="geometry" />
        </mxCell>
        <mxCell id="gbrn2lNVtv7BBhAPLF4O-74" style="edgeStyle=orthogonalEdgeStyle;rounded=0;orthogonalLoop=1;jettySize=auto;html=1;entryX=0;entryY=0.5;entryDx=0;entryDy=0;" parent="1" source="gbrn2lNVtv7BBhAPLF4O-70" target="3XsBuUyz1fBq4fFgZFKG-171" edge="1">
          <mxGeometry relative="1" as="geometry">
            <mxPoint x="100" y="500" as="targetPoint" />
          </mxGeometry>
        </mxCell>
        <mxCell id="gbrn2lNVtv7BBhAPLF4O-70" value="Law&amp;nbsp;&lt;div&gt;Format: JSON&lt;/div&gt;" style="shape=cylinder3;whiteSpace=wrap;html=1;boundedLbl=1;backgroundOutline=1;size=6.862068965517267;fillColor=#f5f5f5;fontColor=#333333;strokeColor=#666666;" parent="1" vertex="1">
          <mxGeometry x="-100" y="435" width="130" height="70" as="geometry" />
        </mxCell>
        <mxCell id="gbrn2lNVtv7BBhAPLF4O-75" style="edgeStyle=orthogonalEdgeStyle;rounded=0;orthogonalLoop=1;jettySize=auto;html=1;entryX=0.5;entryY=0;entryDx=0;entryDy=0;exitX=1;exitY=0.5;exitDx=0;exitDy=0;" parent="1" source="3XsBuUyz1fBq4fFgZFKG-171" target="gbrn2lNVtv7BBhAPLF4O-57" edge="1">
          <mxGeometry relative="1" as="geometry">
            <mxPoint x="190" y="470" as="sourcePoint" />
            <mxPoint x="360" y="600" as="targetPoint" />
            <Array as="points">
              <mxPoint x="240" y="470" />
              <mxPoint x="360" y="470" />
            </Array>
          </mxGeometry>
        </mxCell>
        <mxCell id="gbrn2lNVtv7BBhAPLF4O-73" style="edgeStyle=orthogonalEdgeStyle;rounded=0;orthogonalLoop=1;jettySize=auto;html=1;entryX=0.5;entryY=0;entryDx=0;entryDy=0;exitX=0.5;exitY=1;exitDx=0;exitDy=0;fillColor=#f8cecc;strokeColor=#000000;" parent="1" source="3XsBuUyz1fBq4fFgZFKG-170" target="3XsBuUyz1fBq4fFgZFKG-171" edge="1">
          <mxGeometry relative="1" as="geometry">
            <mxPoint x="360" y="90" as="sourcePoint" />
            <mxPoint x="150" y="470" as="targetPoint" />
            <Array as="points">
              <mxPoint x="360" y="100" />
              <mxPoint x="70" y="100" />
              <mxPoint x="70" y="430" />
              <mxPoint x="160" y="430" />
            </Array>
          </mxGeometry>
        </mxCell>
        <mxCell id="3XsBuUyz1fBq4fFgZFKG-140" value="&lt;b&gt;Data Structure&lt;/b&gt;" style="swimlane;fontStyle=0;childLayout=stackLayout;horizontal=1;startSize=30;horizontalStack=0;resizeParent=1;resizeParentMax=0;resizeLast=0;collapsible=1;marginBottom=0;whiteSpace=wrap;html=1;fillColor=#FFF2CC;" parent="1" vertex="1">
          <mxGeometry x="942" y="480" width="140" height="150" as="geometry" />
        </mxCell>
        <mxCell id="3XsBuUyz1fBq4fFgZFKG-141" value="Sentence" style="text;strokeColor=none;fillColor=none;align=left;verticalAlign=middle;spacingLeft=4;spacingRight=4;overflow=hidden;points=[[0,0.5],[1,0.5]];portConstraint=eastwest;rotatable=0;whiteSpace=wrap;html=1;" parent="3XsBuUyz1fBq4fFgZFKG-140" vertex="1">
          <mxGeometry y="30" width="140" height="30" as="geometry" />
        </mxCell>
        <mxCell id="3XsBuUyz1fBq4fFgZFKG-142" value="Unfair label" style="text;strokeColor=none;fillColor=none;align=left;verticalAlign=middle;spacingLeft=4;spacingRight=4;overflow=hidden;points=[[0,0.5],[1,0.5]];portConstraint=eastwest;rotatable=0;whiteSpace=wrap;html=1;" parent="3XsBuUyz1fBq4fFgZFKG-140" vertex="1">
          <mxGeometry y="60" width="140" height="30" as="geometry" />
        </mxCell>
        <mxCell id="3XsBuUyz1fBq4fFgZFKG-143" value="Toxic label" style="text;strokeColor=none;fillColor=none;align=left;verticalAlign=middle;spacingLeft=4;spacingRight=4;overflow=hidden;points=[[0,0.5],[1,0.5]];portConstraint=eastwest;rotatable=0;whiteSpace=wrap;html=1;" parent="3XsBuUyz1fBq4fFgZFKG-140" vertex="1">
          <mxGeometry y="90" width="140" height="30" as="geometry" />
        </mxCell>
        <mxCell id="3XsBuUyz1fBq4fFgZFKG-156" value="law" style="text;strokeColor=none;fillColor=none;align=left;verticalAlign=middle;spacingLeft=4;spacingRight=4;overflow=hidden;points=[[0,0.5],[1,0.5]];portConstraint=eastwest;rotatable=0;whiteSpace=wrap;html=1;" parent="3XsBuUyz1fBq4fFgZFKG-140" vertex="1">
          <mxGeometry y="120" width="140" height="30" as="geometry" />
        </mxCell>
        <mxCell id="3XsBuUyz1fBq4fFgZFKG-158" value="&lt;b&gt;Data Structure&lt;/b&gt;" style="swimlane;fontStyle=0;childLayout=stackLayout;horizontal=1;startSize=30;horizontalStack=0;resizeParent=1;resizeParentMax=0;resizeLast=0;collapsible=1;marginBottom=0;whiteSpace=wrap;html=1;fillColor=#FFF2CC;" parent="1" vertex="1">
          <mxGeometry x="740" y="641" width="140" height="150" as="geometry" />
        </mxCell>
        <mxCell id="3XsBuUyz1fBq4fFgZFKG-159" value="Sentence" style="text;strokeColor=none;fillColor=none;align=left;verticalAlign=middle;spacingLeft=4;spacingRight=4;overflow=hidden;points=[[0,0.5],[1,0.5]];portConstraint=eastwest;rotatable=0;whiteSpace=wrap;html=1;" parent="3XsBuUyz1fBq4fFgZFKG-158" vertex="1">
          <mxGeometry y="30" width="140" height="30" as="geometry" />
        </mxCell>
        <mxCell id="3XsBuUyz1fBq4fFgZFKG-160" value="Unfair label" style="text;strokeColor=none;fillColor=none;align=left;verticalAlign=middle;spacingLeft=4;spacingRight=4;overflow=hidden;points=[[0,0.5],[1,0.5]];portConstraint=eastwest;rotatable=0;whiteSpace=wrap;html=1;" parent="3XsBuUyz1fBq4fFgZFKG-158" vertex="1">
          <mxGeometry y="60" width="140" height="30" as="geometry" />
        </mxCell>
        <mxCell id="3XsBuUyz1fBq4fFgZFKG-161" value="Toxic label" style="text;strokeColor=none;fillColor=none;align=left;verticalAlign=middle;spacingLeft=4;spacingRight=4;overflow=hidden;points=[[0,0.5],[1,0.5]];portConstraint=eastwest;rotatable=0;whiteSpace=wrap;html=1;" parent="3XsBuUyz1fBq4fFgZFKG-158" vertex="1">
          <mxGeometry y="90" width="140" height="30" as="geometry" />
        </mxCell>
        <mxCell id="3XsBuUyz1fBq4fFgZFKG-162" value="explaination" style="text;strokeColor=none;fillColor=none;align=left;verticalAlign=middle;spacingLeft=4;spacingRight=4;overflow=hidden;points=[[0,0.5],[1,0.5]];portConstraint=eastwest;rotatable=0;whiteSpace=wrap;html=1;" parent="3XsBuUyz1fBq4fFgZFKG-158" vertex="1">
          <mxGeometry y="120" width="140" height="30" as="geometry" />
        </mxCell>
        <mxCell id="3XsBuUyz1fBq4fFgZFKG-169" value="" style="rounded=0;whiteSpace=wrap;html=1;strokeColor=none;" parent="1" vertex="1">
          <mxGeometry x="-300" y="-530" width="600" height="440" as="geometry" />
        </mxCell>
        <mxCell id="3XsBuUyz1fBq4fFgZFKG-170" value="Input: Sentence&lt;div&gt;Type: String&lt;/div&gt;" style="rounded=0;whiteSpace=wrap;html=1;fillColor=#F19C99;strokeColor=#CC0000;" parent="1" vertex="1">
          <mxGeometry x="300" y="19" width="120" height="60" as="geometry" />
        </mxCell>
        <mxCell id="3XsBuUyz1fBq4fFgZFKG-171" value="Cosine Similarity-Based Legal Clause Matching Algorithm" style="shape=hexagon;perimeter=hexagonPerimeter2;whiteSpace=wrap;html=1;fixedSize=1;fillColor=#E5CCFF;strokeColor=#9933FF;" parent="1" vertex="1">
          <mxGeometry x="80" y="443" width="160" height="55" as="geometry" />
        </mxCell>
        <mxCell id="3XsBuUyz1fBq4fFgZFKG-214" style="edgeStyle=orthogonalEdgeStyle;rounded=0;orthogonalLoop=1;jettySize=auto;html=1;entryX=0.5;entryY=0;entryDx=0;entryDy=0;exitX=0.469;exitY=0.983;exitDx=0;exitDy=0;exitPerimeter=0;" parent="1" source="3XsBuUyz1fBq4fFgZFKG-215" target="3XsBuUyz1fBq4fFgZFKG-170" edge="1">
          <mxGeometry relative="1" as="geometry">
            <Array as="points">
              <mxPoint x="-50" y="-120" />
              <mxPoint x="-50" y="-50" />
              <mxPoint x="360" y="-50" />
            </Array>
          </mxGeometry>
        </mxCell>
        <mxCell id="3XsBuUyz1fBq4fFgZFKG-216" style="edgeStyle=orthogonalEdgeStyle;rounded=0;orthogonalLoop=1;jettySize=auto;html=1;entryX=0.5;entryY=0;entryDx=0;entryDy=0;" parent="1" source="3XsBuUyz1fBq4fFgZFKG-203" target="3XsBuUyz1fBq4fFgZFKG-215" edge="1">
          <mxGeometry relative="1" as="geometry" />
        </mxCell>
        <mxCell id="3XsBuUyz1fBq4fFgZFKG-203" value="Extract Sentences&amp;nbsp;&lt;div&gt;from Article&lt;/div&gt;" style="shape=hexagon;perimeter=hexagonPerimeter2;whiteSpace=wrap;html=1;fixedSize=1;fillColor=#E5CCFF;strokeColor=#9933FF;" parent="1" vertex="1">
          <mxGeometry x="-140" y="-212" width="180" height="33" as="geometry" />
        </mxCell>
        <mxCell id="3XsBuUyz1fBq4fFgZFKG-207" style="edgeStyle=orthogonalEdgeStyle;rounded=0;orthogonalLoop=1;jettySize=auto;html=1;entryX=0.5;entryY=0;entryDx=0;entryDy=0;" parent="1" source="3XsBuUyz1fBq4fFgZFKG-204" target="3XsBuUyz1fBq4fFgZFKG-206" edge="1">
          <mxGeometry relative="1" as="geometry" />
        </mxCell>
        <mxCell id="3XsBuUyz1fBq4fFgZFKG-204" value="Extract Articles&amp;nbsp;&lt;div&gt;from Contract&lt;/div&gt;" style="shape=hexagon;perimeter=hexagonPerimeter2;whiteSpace=wrap;html=1;fixedSize=1;fillColor=#E5CCFF;strokeColor=#9933FF;" parent="1" vertex="1">
          <mxGeometry x="-140" y="-341.5" width="180" height="33" as="geometry" />
        </mxCell>
        <mxCell id="3XsBuUyz1fBq4fFgZFKG-224" style="edgeStyle=orthogonalEdgeStyle;rounded=0;orthogonalLoop=1;jettySize=auto;html=1;entryX=0.5;entryY=0;entryDx=0;entryDy=0;exitX=0.5;exitY=1;exitDx=0;exitDy=0;" parent="1" source="3XsBuUyz1fBq4fFgZFKG-205" target="3XsBuUyz1fBq4fFgZFKG-170" edge="1">
          <mxGeometry relative="1" as="geometry">
            <Array as="points">
              <mxPoint x="200" y="-50" />
              <mxPoint x="360" y="-50" />
            </Array>
          </mxGeometry>
        </mxCell>
        <mxCell id="3XsBuUyz1fBq4fFgZFKG-205" value="Identify Added/Modified Sections" style="shape=hexagon;perimeter=hexagonPerimeter2;whiteSpace=wrap;html=1;fixedSize=1;fillColor=#E5CCFF;strokeColor=#9933FF;" parent="1" vertex="1">
          <mxGeometry x="120" y="-341.5" width="160" height="33" as="geometry" />
        </mxCell>
        <mxCell id="3XsBuUyz1fBq4fFgZFKG-208" style="edgeStyle=orthogonalEdgeStyle;rounded=0;orthogonalLoop=1;jettySize=auto;html=1;entryX=0.5;entryY=0;entryDx=0;entryDy=0;" parent="1" source="3XsBuUyz1fBq4fFgZFKG-206" target="3XsBuUyz1fBq4fFgZFKG-203" edge="1">
          <mxGeometry relative="1" as="geometry" />
        </mxCell>
        <mxCell id="3XsBuUyz1fBq4fFgZFKG-206" value="Repeat Input by Article" style="shape=parallelogram;perimeter=parallelogramPerimeter;whiteSpace=wrap;html=1;fixedSize=1;fillColor=#FFE6CC;strokeColor=#FF8000;" parent="1" vertex="1">
          <mxGeometry x="-140" y="-277" width="180" height="30" as="geometry" />
        </mxCell>
        <mxCell id="3XsBuUyz1fBq4fFgZFKG-210" style="edgeStyle=orthogonalEdgeStyle;rounded=0;orthogonalLoop=1;jettySize=auto;html=1;" parent="1" source="3XsBuUyz1fBq4fFgZFKG-209" target="3XsBuUyz1fBq4fFgZFKG-204" edge="1">
          <mxGeometry relative="1" as="geometry" />
        </mxCell>
        <mxCell id="3XsBuUyz1fBq4fFgZFKG-211" style="edgeStyle=orthogonalEdgeStyle;rounded=0;orthogonalLoop=1;jettySize=auto;html=1;" parent="1" source="3XsBuUyz1fBq4fFgZFKG-209" target="3XsBuUyz1fBq4fFgZFKG-205" edge="1">
          <mxGeometry relative="1" as="geometry" />
        </mxCell>
        <mxCell id="3XsBuUyz1fBq4fFgZFKG-209" value="&lt;div style=&quot;text-align: left;&quot;&gt;Previous Contract Version Exists?&lt;/div&gt;" style="rhombus;whiteSpace=wrap;html=1;fillColor=#d5e8d4;strokeColor=#82b366;" parent="1" vertex="1">
          <mxGeometry x="-170" y="-420" width="240" height="50" as="geometry" />
        </mxCell>
        <mxCell id="3XsBuUyz1fBq4fFgZFKG-212" value="Yes" style="text;html=1;align=center;verticalAlign=middle;whiteSpace=wrap;rounded=0;" parent="1" vertex="1">
          <mxGeometry x="-97" y="-376" width="60" height="30" as="geometry" />
        </mxCell>
        <mxCell id="3XsBuUyz1fBq4fFgZFKG-213" value="No" style="text;html=1;align=center;verticalAlign=middle;whiteSpace=wrap;rounded=0;" parent="1" vertex="1">
          <mxGeometry x="40" y="-400" width="60" height="30" as="geometry" />
        </mxCell>
        <mxCell id="3XsBuUyz1fBq4fFgZFKG-237" style="edgeStyle=orthogonalEdgeStyle;rounded=0;orthogonalLoop=1;jettySize=auto;html=1;entryX=0.5;entryY=0;entryDx=0;entryDy=0;exitX=0.5;exitY=1;exitDx=0;exitDy=0;" parent="1" source="3XsBuUyz1fBq4fFgZFKG-206" target="3XsBuUyz1fBq4fFgZFKG-264" edge="1">
          <mxGeometry relative="1" as="geometry">
            <Array as="points">
              <mxPoint x="-50" y="-230" />
              <mxPoint x="-363" y="-230" />
            </Array>
          </mxGeometry>
        </mxCell>
        <mxCell id="3XsBuUyz1fBq4fFgZFKG-215" value="Repeat Input by Sentences" style="shape=parallelogram;perimeter=parallelogramPerimeter;whiteSpace=wrap;html=1;fixedSize=1;fillColor=#FFE6CC;strokeColor=#FF8000;" parent="1" vertex="1">
          <mxGeometry x="-140" y="-150" width="180" height="30" as="geometry" />
        </mxCell>
        <mxCell id="3XsBuUyz1fBq4fFgZFKG-221" style="edgeStyle=orthogonalEdgeStyle;rounded=0;orthogonalLoop=1;jettySize=auto;html=1;entryX=0.5;entryY=0;entryDx=0;entryDy=0;" parent="1" source="3XsBuUyz1fBq4fFgZFKG-217" target="3XsBuUyz1fBq4fFgZFKG-209" edge="1">
          <mxGeometry relative="1" as="geometry">
            <Array as="points">
              <mxPoint x="-232" y="-443" />
              <mxPoint x="-50" y="-443" />
            </Array>
          </mxGeometry>
        </mxCell>
        <mxCell id="3XsBuUyz1fBq4fFgZFKG-217" value="Extract Text&lt;div&gt;(.hwp)&lt;/div&gt;" style="shape=hexagon;perimeter=hexagonPerimeter2;whiteSpace=wrap;html=1;fixedSize=1;fillColor=#E5CCFF;strokeColor=#9933FF;" parent="1" vertex="1">
          <mxGeometry x="-282" y="-499" width="100" height="33" as="geometry" />
        </mxCell>
        <mxCell id="3XsBuUyz1fBq4fFgZFKG-222" style="edgeStyle=orthogonalEdgeStyle;rounded=0;orthogonalLoop=1;jettySize=auto;html=1;entryX=0.5;entryY=0;entryDx=0;entryDy=0;" parent="1" source="3XsBuUyz1fBq4fFgZFKG-219" target="3XsBuUyz1fBq4fFgZFKG-209" edge="1">
          <mxGeometry relative="1" as="geometry" />
        </mxCell>
        <mxCell id="3XsBuUyz1fBq4fFgZFKG-219" value="Extract Text&lt;div&gt;(.pdf)&lt;/div&gt;" style="shape=hexagon;perimeter=hexagonPerimeter2;whiteSpace=wrap;html=1;fixedSize=1;fillColor=#E5CCFF;strokeColor=#9933FF;" parent="1" vertex="1">
          <mxGeometry x="-162" y="-499" width="100" height="33" as="geometry" />
        </mxCell>
        <mxCell id="3XsBuUyz1fBq4fFgZFKG-220" value="Extract Text&lt;div&gt;(.png)&lt;/div&gt;" style="shape=hexagon;perimeter=hexagonPerimeter2;whiteSpace=wrap;html=1;fixedSize=1;fillColor=#E5CCFF;strokeColor=#9933FF;" parent="1" vertex="1">
          <mxGeometry x="-42" y="-499" width="100" height="33" as="geometry" />
        </mxCell>
        <mxCell id="3XsBuUyz1fBq4fFgZFKG-223" style="edgeStyle=orthogonalEdgeStyle;rounded=0;orthogonalLoop=1;jettySize=auto;html=1;entryX=0.5;entryY=0;entryDx=0;entryDy=0;" parent="1" source="3XsBuUyz1fBq4fFgZFKG-220" target="3XsBuUyz1fBq4fFgZFKG-209" edge="1">
          <mxGeometry relative="1" as="geometry" />
        </mxCell>
        <mxCell id="3XsBuUyz1fBq4fFgZFKG-226" style="edgeStyle=orthogonalEdgeStyle;rounded=0;orthogonalLoop=1;jettySize=auto;html=1;" parent="1" source="3XsBuUyz1fBq4fFgZFKG-225" target="3XsBuUyz1fBq4fFgZFKG-217" edge="1">
          <mxGeometry relative="1" as="geometry">
            <Array as="points">
              <mxPoint x="-50" y="-520" />
              <mxPoint x="-232" y="-520" />
            </Array>
          </mxGeometry>
        </mxCell>
        <mxCell id="3XsBuUyz1fBq4fFgZFKG-227" style="edgeStyle=orthogonalEdgeStyle;rounded=0;orthogonalLoop=1;jettySize=auto;html=1;" parent="1" source="3XsBuUyz1fBq4fFgZFKG-225" target="3XsBuUyz1fBq4fFgZFKG-219" edge="1">
          <mxGeometry relative="1" as="geometry">
            <Array as="points">
              <mxPoint x="-50" y="-520" />
              <mxPoint x="-112" y="-520" />
            </Array>
          </mxGeometry>
        </mxCell>
        <mxCell id="3XsBuUyz1fBq4fFgZFKG-228" style="edgeStyle=orthogonalEdgeStyle;rounded=0;orthogonalLoop=1;jettySize=auto;html=1;entryX=0.5;entryY=0;entryDx=0;entryDy=0;" parent="1" source="3XsBuUyz1fBq4fFgZFKG-225" target="3XsBuUyz1fBq4fFgZFKG-220" edge="1">
          <mxGeometry relative="1" as="geometry">
            <Array as="points">
              <mxPoint x="-50" y="-520" />
              <mxPoint x="8" y="-520" />
            </Array>
          </mxGeometry>
        </mxCell>
        <mxCell id="3XsBuUyz1fBq4fFgZFKG-229" style="edgeStyle=orthogonalEdgeStyle;rounded=0;orthogonalLoop=1;jettySize=auto;html=1;entryX=0.5;entryY=0;entryDx=0;entryDy=0;" parent="1" source="3XsBuUyz1fBq4fFgZFKG-225" target="3XsBuUyz1fBq4fFgZFKG-231" edge="1">
          <mxGeometry relative="1" as="geometry">
            <Array as="points">
              <mxPoint x="-50" y="-520" />
              <mxPoint x="110" y="-520" />
            </Array>
          </mxGeometry>
        </mxCell>
        <mxCell id="3XsBuUyz1fBq4fFgZFKG-225" value="User Input" style="shape=cylinder3;whiteSpace=wrap;html=1;boundedLbl=1;backgroundOutline=1;size=6.862068965517267;fillColor=#f5f5f5;fontColor=#333333;strokeColor=#666666;" parent="1" vertex="1">
          <mxGeometry x="-115" y="-625" width="130" height="70" as="geometry" />
        </mxCell>
        <mxCell id="3XsBuUyz1fBq4fFgZFKG-232" style="edgeStyle=orthogonalEdgeStyle;rounded=0;orthogonalLoop=1;jettySize=auto;html=1;entryX=0.5;entryY=0;entryDx=0;entryDy=0;" parent="1" source="3XsBuUyz1fBq4fFgZFKG-231" target="3XsBuUyz1fBq4fFgZFKG-209" edge="1">
          <mxGeometry relative="1" as="geometry">
            <Array as="points">
              <mxPoint x="110" y="-443" />
              <mxPoint x="-50" y="-443" />
            </Array>
          </mxGeometry>
        </mxCell>
        <mxCell id="3XsBuUyz1fBq4fFgZFKG-231" value="Text" style="rounded=0;whiteSpace=wrap;html=1;fillColor=#fff2cc;strokeColor=#d6b656;" parent="1" vertex="1">
          <mxGeometry x="80" y="-499" width="60" height="32" as="geometry" />
        </mxCell>
        <mxCell id="3XsBuUyz1fBq4fFgZFKG-234" style="edgeStyle=orthogonalEdgeStyle;rounded=0;orthogonalLoop=1;jettySize=auto;html=1;entryX=0;entryY=0.5;entryDx=0;entryDy=0;" parent="1" source="3XsBuUyz1fBq4fFgZFKG-233" target="3XsBuUyz1fBq4fFgZFKG-209" edge="1">
          <mxGeometry relative="1" as="geometry" />
        </mxCell>
        <mxCell id="3XsBuUyz1fBq4fFgZFKG-233" value="Database" style="shape=cylinder3;whiteSpace=wrap;html=1;boundedLbl=1;backgroundOutline=1;size=6.862068965517267;fillColor=#f5f5f5;fontColor=#333333;strokeColor=#666666;" parent="1" vertex="1">
          <mxGeometry x="-450" y="-430" width="130" height="70" as="geometry" />
        </mxCell>
        <mxCell id="3XsBuUyz1fBq4fFgZFKG-240" style="edgeStyle=orthogonalEdgeStyle;rounded=0;orthogonalLoop=1;jettySize=auto;html=1;exitX=0.5;exitY=1;exitDx=0;exitDy=0;entryX=0.5;entryY=0;entryDx=0;entryDy=0;" parent="1" source="3XsBuUyz1fBq4fFgZFKG-236" target="3XsBuUyz1fBq4fFgZFKG-241" edge="1">
          <mxGeometry relative="1" as="geometry">
            <Array as="points">
              <mxPoint x="-363" y="700" />
              <mxPoint y="700" />
            </Array>
          </mxGeometry>
        </mxCell>
        <mxCell id="3XsBuUyz1fBq4fFgZFKG-236" value="Contract Summary AI" style="ellipse;whiteSpace=wrap;html=1;aspect=fixed;fillColor=#dae8fc;strokeColor=#6c8ebf;" parent="1" vertex="1">
          <mxGeometry x="-413" y="221" width="100" height="100" as="geometry" />
        </mxCell>
        <mxCell id="3XsBuUyz1fBq4fFgZFKG-241" value="Store and structure results&amp;nbsp;&lt;div&gt;&lt;b&gt;&lt;font style=&quot;font-size: 18px;&quot;&gt;(Under Design)&lt;/font&gt;&lt;/b&gt;&lt;/div&gt;" style="shape=hexagon;perimeter=hexagonPerimeter2;whiteSpace=wrap;html=1;fixedSize=1;fillColor=#E5CCFF;strokeColor=#9933FF;" parent="1" vertex="1">
          <mxGeometry x="-80" y="750" width="160" height="55" as="geometry" />
        </mxCell>
        <mxCell id="3XsBuUyz1fBq4fFgZFKG-247" style="edgeStyle=orthogonalEdgeStyle;rounded=0;orthogonalLoop=1;jettySize=auto;html=1;entryX=0.004;entryY=0.052;entryDx=0;entryDy=0;entryPerimeter=0;strokeColor=#990000;" parent="1" edge="1">
          <mxGeometry relative="1" as="geometry">
            <mxPoint x="359.99995918334025" y="489.51428571428596" as="sourcePoint" />
            <mxPoint x="942.56" y="488.8000000000002" as="targetPoint" />
            <Array as="points">
              <mxPoint x="650" y="490" />
              <mxPoint x="943" y="489" />
            </Array>
          </mxGeometry>
        </mxCell>
        <mxCell id="3XsBuUyz1fBq4fFgZFKG-249" style="edgeStyle=orthogonalEdgeStyle;rounded=0;orthogonalLoop=1;jettySize=auto;html=1;entryX=-0.003;entryY=0.101;entryDx=0;entryDy=0;entryPerimeter=0;strokeColor=#990000;" parent="1" source="3XsBuUyz1fBq4fFgZFKG-248" target="3XsBuUyz1fBq4fFgZFKG-158" edge="1">
          <mxGeometry relative="1" as="geometry" />
        </mxCell>
        <mxCell id="3XsBuUyz1fBq4fFgZFKG-250" value="&lt;b&gt;Data Structure&lt;/b&gt;" style="swimlane;fontStyle=0;childLayout=stackLayout;horizontal=1;startSize=30;horizontalStack=0;resizeParent=1;resizeParentMax=0;resizeLast=0;collapsible=1;marginBottom=0;whiteSpace=wrap;html=1;fillColor=#FFF2CC;" parent="1" vertex="1">
          <mxGeometry x="383" y="814" width="140" height="60" as="geometry" />
        </mxCell>
        <mxCell id="3XsBuUyz1fBq4fFgZFKG-251" value="???" style="text;strokeColor=none;fillColor=none;align=left;verticalAlign=middle;spacingLeft=4;spacingRight=4;overflow=hidden;points=[[0,0.5],[1,0.5]];portConstraint=eastwest;rotatable=0;whiteSpace=wrap;html=1;" parent="3XsBuUyz1fBq4fFgZFKG-250" vertex="1">
          <mxGeometry y="30" width="140" height="30" as="geometry" />
        </mxCell>
        <mxCell id="3XsBuUyz1fBq4fFgZFKG-255" value="Database" style="shape=cylinder3;whiteSpace=wrap;html=1;boundedLbl=1;backgroundOutline=1;size=6.862068965517267;fillColor=#f5f5f5;fontColor=#333333;strokeColor=#666666;" parent="1" vertex="1">
          <mxGeometry x="-65" y="890" width="130" height="70" as="geometry" />
        </mxCell>
        <mxCell id="3XsBuUyz1fBq4fFgZFKG-256" style="edgeStyle=orthogonalEdgeStyle;rounded=0;orthogonalLoop=1;jettySize=auto;html=1;entryX=0.5;entryY=0;entryDx=0;entryDy=0;entryPerimeter=0;" parent="1" source="3XsBuUyz1fBq4fFgZFKG-241" target="3XsBuUyz1fBq4fFgZFKG-255" edge="1">
          <mxGeometry relative="1" as="geometry" />
        </mxCell>
        <mxCell id="3XsBuUyz1fBq4fFgZFKG-259" style="edgeStyle=orthogonalEdgeStyle;rounded=0;orthogonalLoop=1;jettySize=auto;html=1;entryX=0;entryY=0.25;entryDx=0;entryDy=0;strokeColor=#990000;" parent="1" source="3XsBuUyz1fBq4fFgZFKG-258" target="3XsBuUyz1fBq4fFgZFKG-250" edge="1">
          <mxGeometry relative="1" as="geometry">
            <Array as="points">
              <mxPoint x="190" y="829" />
              <mxPoint x="383" y="829" />
            </Array>
          </mxGeometry>
        </mxCell>
        <mxCell id="3XsBuUyz1fBq4fFgZFKG-261" value="&lt;b&gt;Data Structure&lt;/b&gt;" style="swimlane;fontStyle=0;childLayout=stackLayout;horizontal=1;startSize=30;horizontalStack=0;resizeParent=1;resizeParentMax=0;resizeLast=0;collapsible=1;marginBottom=0;whiteSpace=wrap;html=1;fillColor=#FFF2CC;" parent="1" vertex="1">
          <mxGeometry x="-730" y="407" width="140" height="60" as="geometry" />
        </mxCell>
        <mxCell id="3XsBuUyz1fBq4fFgZFKG-262" value="???" style="text;strokeColor=none;fillColor=none;align=left;verticalAlign=middle;spacingLeft=4;spacingRight=4;overflow=hidden;points=[[0,0.5],[1,0.5]];portConstraint=eastwest;rotatable=0;whiteSpace=wrap;html=1;" parent="3XsBuUyz1fBq4fFgZFKG-261" vertex="1">
          <mxGeometry y="30" width="140" height="30" as="geometry" />
        </mxCell>
        <mxCell id="3XsBuUyz1fBq4fFgZFKG-263" style="edgeStyle=orthogonalEdgeStyle;rounded=0;orthogonalLoop=1;jettySize=auto;html=1;entryX=1;entryY=0.25;entryDx=0;entryDy=0;strokeColor=#990000;" parent="1" source="3XsBuUyz1fBq4fFgZFKG-260" target="3XsBuUyz1fBq4fFgZFKG-261" edge="1">
          <mxGeometry relative="1" as="geometry">
            <Array as="points">
              <mxPoint x="-572" y="423" />
              <mxPoint x="-590" y="423" />
            </Array>
          </mxGeometry>
        </mxCell>
        <mxCell id="3XsBuUyz1fBq4fFgZFKG-265" style="edgeStyle=orthogonalEdgeStyle;rounded=0;orthogonalLoop=1;jettySize=auto;html=1;entryX=0.5;entryY=0;entryDx=0;entryDy=0;" parent="1" source="3XsBuUyz1fBq4fFgZFKG-264" target="3XsBuUyz1fBq4fFgZFKG-236" edge="1">
          <mxGeometry relative="1" as="geometry" />
        </mxCell>
        <mxCell id="3XsBuUyz1fBq4fFgZFKG-264" value="Input: Article&lt;div&gt;Type: String&lt;/div&gt;" style="rounded=0;whiteSpace=wrap;html=1;fillColor=#F19C99;strokeColor=#CC0000;" parent="1" vertex="1">
          <mxGeometry x="-423" y="130" width="120" height="60" as="geometry" />
        </mxCell>
      </root>
    </mxGraphModel>
  </diagram>
</mxfile>
